<?xml version="1.0" encoding="utf-8"?>
<!-- Generator: Adobe Illustrator 21.0.2, SVG Export Plug-In . SVG Version: 6.00 Build 0)  -->
<!DOCTYPE svg PUBLIC "-//W3C//DTD SVG 1.1//EN" "http://www.w3.org/Graphics/SVG/1.1/DTD/svg11.dtd">
<svg version="1.1" id="Layer_1" xmlns="http://www.w3.org/2000/svg" xmlns:xlink="http://www.w3.org/1999/xlink" x="0px" y="0px"
	 viewBox="0 0 340.2 81.7" style="enable-background:new 0 0 340.2 81.7;" xml:space="preserve">
<style type="text/css">
	.st0{display:none;fill:#EB6323;}
	.st1{fill:#FFFFFF;}
	.st2{fill:#FF6A26;}
	.st3{fill:#8CC1FF;}
</style>
<path class="st0" d="M319.4,353.9c0,3.9-3.1,7-7,7H118.7c-3.8,0-7-3.1-7-7v-38.8c0-3.8,3.1-7,7-7h193.7c3.8,0,7,3.1,7,7V353.9z"/>
<path class="st1" d="M337.4,2.9c-1.7-1.8-4.1-2.9-6.8-2.9h-82.2c-2.7,0-5.1,1.2-6.8,3c-0.6,0.6-1.1,1.3-1.5,2.1
	c-0.4-0.8-1-1.5-1.6-2.1c-1.8-1.8-4.3-2.9-7-2.9H10C7.3,0.1,4.8,1.2,3,3C1.2,4.6,0,7.1,0,9.9v44.4c0,2.7,1.1,5.2,2.9,7
	c1.8,1.8,4.3,2.9,7,2.9h221.4c2.7,0,5.2-1.1,7-2.9c0.6-0.6,1.1-1.3,1.6-2.1c0.4,0.8,0.9,1.5,1.5,2.1c1.7,1.8,4.2,2.9,6.8,2.9H286
	v17.5l15.7-17.5h12.9c1.3,0,2.6-0.3,3.8-0.8c1.2-0.5,2.3-1.2,3.3-2.1l0.1-0.1l15.5-15.5c0.9-0.9,1.6-2,2.1-3.2s0.8-2.5,0.8-3.8v-29
	C340.2,7.1,339.1,4.7,337.4,2.9z"/>
<path class="st2" d="M237.4,54.3c0,1.7-0.7,3.1-1.8,4.2c-1.1,1.1-2.6,1.8-4.2,1.8H10c-1.7,0-3.1-0.7-4.2-1.8S4,55.9,4,54.3V9.9
	c0-1.7,0.7-3.1,1.8-4.2S8.4,3.9,10,3.9h221.4c1.7,0,3.1,0.7,4.2,1.8c1.1,1.1,1.8,2.6,1.8,4.2V54.3z"/>
<path class="st3" d="M330.6,3.9c1.5,0,2.9,0.7,4,1.7c1.1,1.1,1.7,2.6,1.7,4.2v29c0,0.5-0.2,1.4-0.5,2.3c-0.3,0.8-0.8,1.6-1.2,2
	l-15.5,15.5l0,0c-0.4,0.4-1.1,0.9-2,1.2c-0.8,0.3-1.7,0.5-2.3,0.5h-14.7l-10,11.1V60.2h-41.7c-1.5,0-2.9-0.6-4-1.7
	c-1-1.1-1.7-2.6-1.7-4.2V9.9c0-1.7,0.7-3.2,1.7-4.3c1.1-1.1,2.5-1.7,4-1.7H330.6z"/>
<path class="st1" d="M255.2,46.1c-1.1,0-2.1,0-2.1-0.4V19.4h-4c-0.3,0-0.4-0.8-0.4-1.6c0-0.9,0-1.4,0.4-1.6l5.1-1.9h3.2v31.4
	C257.4,46.1,256.3,46.1,255.2,46.1"/>
<path class="st1" d="M274.7,46.4c-5.4,0-9.5-2.6-9.5-8.5v-1.6c0-3.1,1.5-5.3,3.4-6.7c-1.6-1.4-3-3.4-3-6.2v-1.2
	c0-5.9,3.9-8.5,9.2-8.5c5.4,0,9.5,2.6,9.5,8.5v1.2c0,2.7-1.6,4.9-3.3,6.2c1.9,1.4,3.6,3.6,3.6,6.7v1.6
	C284.7,43.8,280.1,46.4,274.7,46.4 M274.9,17.2c-3.6,0-5.6,1.5-5.6,5.5c0,4.1,2.9,5.4,5.7,5.4c2.8,0,5.7-1.3,5.7-5.4
	C280.7,18.6,278.6,17.2,274.9,17.2 M280.7,36.8c0-4.1-3-5.5-5.7-5.5c-2.8,0-5.7,1.4-5.7,5.5v0.6c0,4.1,2.9,5.5,5.7,5.5
	c2.8,0,5.7-1.4,5.7-5.5V36.8z"/>
<path class="st1" d="M299.7,46.4c-5.4,0-9.5-2.6-9.5-8.5v-1.6c0-3.1,1.5-5.3,3.4-6.7c-1.6-1.4-3-3.4-3-6.2v-1.2
	c0-5.9,3.9-8.5,9.2-8.5c5.4,0,9.5,2.6,9.5,8.5v1.2c0,2.7-1.6,4.9-3.3,6.2c1.9,1.4,3.6,3.6,3.6,6.7v1.6
	C309.8,43.8,305.1,46.4,299.7,46.4 M300,17.2c-3.6,0-5.6,1.5-5.6,5.5c0,4.1,2.9,5.4,5.7,5.4c2.8,0,5.7-1.3,5.7-5.4
	C305.7,18.6,303.6,17.2,300,17.2 M305.7,36.8c0-4.1-3-5.5-5.7-5.5c-2.8,0-5.7,1.4-5.7,5.5v0.6c0,4.1,2.9,5.5,5.7,5.5
	c2.8,0,5.7-1.4,5.7-5.5V36.8z"/>
<path class="st1" d="M321.5,46.1c-1.1,0-2.1,0-2.1-0.4V19.4h-4c-0.3,0-0.4-0.8-0.4-1.6c0-0.9,0-1.4,0.4-1.6l5.1-1.9h3.2v31.4
	C323.7,46.1,322.6,46.1,321.5,46.1"/>
<g id="Opplysningen_1_">
	<path class="st1" d="M24.7,42.7c-4.9,0-8.9-1.9-8.9-6.7V24.6c0-4.8,4-6.7,8.9-6.7s8.9,1.9,8.9,6.7v11.3
		C33.6,40.8,29.6,42.7,24.7,42.7 M30.3,24.6c0-3.4-3.1-4.1-5.6-4.1s-5.6,0.7-5.6,4.1v11.3c0,3.4,3.1,4.1,5.6,4.1s5.6-0.7,5.6-4.1
		V24.6z"/>
	<path class="st1" d="M46,42.7c-1.8,0-3.2-0.8-4.3-1.9v8.1c0,0.3-0.9,0.3-1.6,0.3c-0.7,0-1.6,0-1.6-0.3v-24c0-0.3,0.9-0.3,1.6-0.3
		c0.7,0,1.6,0,1.6,0.3v1.9c1.4-2.1,3.4-2.4,4.8-2.5c4.6-0.2,6.7,2.7,6.7,7.1v4.2C53.2,40,50.7,42.7,46,42.7 M49.9,30.7
		c0-3.3-1.9-4.1-3.7-4.1c-2.4,0-4.4,2.7-4.4,4.4v4.7c0,3.4,2,4.8,4.3,4.8s3.9-1.6,3.9-4.7L49.9,30.7L49.9,30.7z"/>
	<path class="st1" d="M65,42.7c-1.8,0-3.2-0.8-4.3-1.9v8.1c0,0.3-0.9,0.3-1.6,0.3c-0.7,0-1.6,0-1.6-0.3v-24c0-0.3,0.9-0.3,1.6-0.3
		c0.7,0,1.6,0,1.6,0.3v1.9c1.4-2.1,3.4-2.4,4.8-2.5c4.6-0.2,6.7,2.7,6.7,7.1v4.2C72.1,40,69.7,42.7,65,42.7 M68.9,30.7
		c0-3.3-1.9-4.1-3.7-4.1c-2.4,0-4.4,2.7-4.4,4.4v4.7c0,3.4,2,4.8,4.3,4.8c2.3,0,3.9-1.6,3.9-4.7v-5.1H68.9z"/>
	<path class="st1" d="M82,42.3h-2c-2.7,0-3.4-1.2-3.4-3.6V18.5c0-0.3,0.9-0.3,1.6-0.3s1.6,0,1.6,0.3v20.7c0,0.6,0.3,0.7,0.8,0.7H82
		c0.3,0,0.4,0.6,0.4,1.2C82.4,41.7,82.3,42.3,82,42.3"/>
	<path class="st1" d="M90.7,48.9c-0.1,0.3-0.7,0.3-1.5,0.3s-1.6,0-1.4-0.3l2.4-6.7l-6.4-17.3c-0.1-0.3,0.9-0.3,1.7-0.3
		c0.8,0,1.5,0,1.7,0.3L91.8,38c0.1,0.3,0.1,0.6,0.1,0.6s0-0.4,0.1-0.6l4.6-13.1c0.1-0.3,1-0.3,1.6-0.3c0.7,0,1.8,0,1.6,0.3
		L90.7,48.9z"/>
	<path class="st1" d="M107.7,42.7c-3.1,0-5.6-1.5-5.9-1.8c-0.3-0.2,0.1-0.8,0.3-1.3c0.3-0.5,0.6-1.1,0.9-1c1.4,0.8,2.9,1.7,4.6,1.7
		c1.6,0,2.8-0.4,3.3-2s-0.4-2.8-1.8-3.4l-4.1-1.6c-2.1-0.8-3.3-2.7-3-4.9c0.5-3.4,3.2-4.3,5.7-4.3c2.3,0,4.5,0.8,5.1,1.1
		c0.3,0.1,0.1,0.8-0.1,1.4s-0.5,1.2-0.8,1.1c-0.6-0.2-2.3-1.2-4-1.2c-1,0-2.4,0.1-2.9,1.4c-0.3,0.9,0,2.1,1.4,2.6l4.3,1.7
		c2.5,1,3.9,3.2,3.2,6.2C113.4,41.3,110.8,42.7,107.7,42.7"/>
	<path class="st1" d="M130.7,42.4c-0.7,0-1.6,0-1.6-0.3V30.2c0-0.9-0.6-3.1-3.1-3.1c-1.1,0-2.2,0.7-3.2,1.9l-1.5,1.9v11.2
		c0,0.3-0.9,0.3-1.6,0.3s-1.6,0-1.6-0.3V24.8c0-0.3,0.9-0.3,1.6-0.3s1.6,0,1.6,0.3v2.9c0,0,1.1-1.3,1.4-1.6c0.5-0.5,1.7-1.9,4.6-1.9
		c2.7,0,4.9,2.2,4.9,5.8v12.1C132.2,42.4,131.3,42.4,130.7,42.4"/>
	<path class="st1" d="M138.8,21.6c-0.7,0-1.6-0.2-1.6-0.5v-2.5c0-0.3,1-0.4,1.7-0.4s1.6,0.1,1.6,0.4v2.5
		C140.4,21.4,139.4,21.6,138.8,21.6 M138.7,42.4c-0.7,0-1.6,0-1.6-0.3V24.8c0-0.3,0.9-0.3,1.6-0.3c0.7,0,1.5,0,1.5,0.3v17.3
		C140.3,42.4,139.4,42.4,138.7,42.4"/>
	<path class="st1" d="M157.6,42.4c-0.7,0-1.6,0-1.6-0.3V30.2c0-0.9-0.6-3.1-3.1-3.1c-1.1,0-2.2,0.7-3.2,1.9l-1.5,1.9v11.2
		c0,0.3-0.9,0.3-1.6,0.3c-0.7,0-1.6,0-1.6-0.3V24.8c0-0.3,0.9-0.3,1.6-0.3c0.7,0,1.6,0,1.6,0.3v2.9c0,0,1.1-1.3,1.4-1.6
		c0.5-0.5,1.7-1.9,4.6-1.9c2.7,0,4.9,2.2,4.9,5.8v12.1C159.1,42.4,158.2,42.4,157.6,42.4"/>
	<path class="st1" d="M175.6,47.9c-1.6,1.1-3.2,1.3-4.9,1.3c-2.3,0-4.3-0.8-5.6-1.8c-0.3-0.2,0.1-0.8,0.4-1.3c0.4-0.6,0.7-0.9,1-0.7
		c0.4,0.3,1.9,1.5,4.3,1.5c1.3,0,4.2-0.8,4.2-4.5v-2.3c0,0-1.5,2.5-4.8,2.5c-4.3,0-6.6-2.2-6.6-6.6v-5.4c0-4.4,2.9-6.5,6.7-6.5
		c2,0,3.8,0.6,4.7,2.1v-1.4c0-0.3,0.9-0.4,1.6-0.4c0.7,0,1.6,0.1,1.6,0.4v16.5C178,42.9,178,46.1,175.6,47.9 M174.9,30.3
		c0-0.4-0.6-3.8-4-3.8c-2.3,0-4.1,1.3-4.1,4v6c0,2.2,1.5,3.8,3.9,3.8c2.3,0,4.3-2.3,4.3-4.7L174.9,30.3L174.9,30.3z"/>
	<path class="st1" d="M185.6,34.7v1.7c0,2.3,1.9,4,4.1,4c2.3,0,3.6-0.6,5.5-1.6c0.3-0.2,0.6,0.3,0.9,0.9c0.3,0.6,0.5,1.1,0.2,1.3
		c-2.5,1.7-5,1.8-6.6,1.8c-3.8,0-7.3-2.6-7.3-6.6v-5.3c0-4.1,3.5-6.5,7.4-6.5s7.2,1.6,7.2,6.5v4h-11.4V34.7z M193.8,30.6
		c0-2.4-1.9-4.1-4-4.1c-2.6,0-4.3,1.7-4.3,4v1.8h8.3V30.6z"/>
	<path class="st1" d="M213.6,42.4c-0.7,0-1.6,0-1.6-0.3V30.2c0-0.9-0.6-3.1-3.1-3.1c-1.1,0-2.2,0.7-3.2,1.9l-1.5,1.9v11.2
		c0,0.3-0.9,0.3-1.6,0.3c-0.7,0-1.6,0-1.6-0.3V24.8c0-0.3,0.9-0.3,1.6-0.3c0.7,0,1.6,0,1.6,0.3v2.9c0,0,1.1-1.3,1.4-1.6
		c0.5-0.5,1.7-1.9,4.6-1.9c2.7,0,4.9,2.2,4.9,5.8v12.1C215.2,42.4,214.2,42.4,213.6,42.4"/>
	<path class="st1" d="M225.4,30.7c-3.8,0-6.9-3.1-6.9-6.9s3.1-6.9,6.9-6.9c3.8,0,6.8,3.1,6.8,6.9S229.2,30.7,225.4,30.7 M225.4,18.5
		c-3,0-5.4,2.4-5.4,5.4c0,2.9,2.4,5.4,5.4,5.4s5.3-2.4,5.3-5.4S228.3,18.5,225.4,18.5 M227.4,27.3c-0.3,0-0.7,0-0.8-0.2l-1-2.1h-1v2
		c0,0.2-0.5,0.2-0.7,0.2c-0.3,0-0.7,0-0.7-0.2v-6.8h2.4c1.4,0,2.3,0.6,2.3,2.1v0.5c0,0.2,0,1.2-0.8,1.8l1.1,2.4
		C228.3,27.3,227.7,27.3,227.4,27.3 M226.5,22.4c0-0.6-0.3-0.7-0.9-0.7h-0.9v1.9h1.1c0.5,0,0.7-0.1,0.7-0.7L226.5,22.4L226.5,22.4z"
		/>
</g>
</svg>
